<?xml version="1.0" encoding="UTF-8"?>
<!DOCTYPE svg PUBLIC "-//W3C//DTD SVG 1.1//EN" "http://www.w3.org/Graphics/SVG/1.1/DTD/svg11.dtd">
<!-- Creator: CorelDRAW 2020 (64-Bit) -->
<svg xmlns="http://www.w3.org/2000/svg" xml:space="preserve" width="461px" height="398px" version="1.1" style="shape-rendering:geometricPrecision; text-rendering:geometricPrecision; image-rendering:optimizeQuality; fill-rule:evenodd; clip-rule:evenodd"
viewBox="0 0 758.7 655.72"
 xmlns:xlink="http://www.w3.org/1999/xlink"
 xmlns:xodm="http://www.corel.com/coreldraw/odm/2003">
 <defs>
  <style type="text/css">
   <![CDATA[
    .fil2 {fill:#B0CB1F}
    .fil0 {fill:#55457D}
    .fil1 {fill:#55457D;fill-rule:nonzero}
   ]]>
  </style>
 </defs>
 <g id="Layer_x0020_1">
  <metadata id="CorelCorpID_0Corel-Layer"/>
  <g id="_2918941716368">
   <path class="fil0" d="M167.91 274.36c0,0 95.91,-48.45 188.59,-27.06 0,0 -33.27,207.23 -356.5,408.42 0,0 316.1,-74.5 434.93,-450.01 0,0 -179.01,-52.83 -267.02,68.65z"/>
   <path class="fil1" d="M334.62 137.12c-55.69,1.02 -105.91,24.3 -142.22,61.29 -36.21,36.88 -58.51,87.52 -58.51,143.36 0,56.5 22.9,107.64 59.91,144.66 37.02,37.01 88.16,59.91 144.66,59.91 53.42,0 102.32,-20.51 138.91,-54.3 27.81,-25.7 48.52,-59.13 58.69,-97.1l-100.68 0 0 -68.57 178.27 0 -2.93 36.96c-5.63,70.99 -38.11,133.9 -87.01,179.07 -48.86,45.13 -114.08,72.52 -185.25,72.52 -75.42,0 -143.71,-30.58 -193.14,-80.01 -49.43,-49.43 -80.01,-117.71 -80.01,-193.14 0,-74.35 29.86,-141.94 78.33,-191.31 48.38,-49.27 115.41,-80.29 189.9,-81.65l1.08 68.31z"/>
   <circle class="fil0" cx="455.29" cy="114.81" r="70.1"/>
   <path class="fil2" d="M682.71 70.33c0,0 40.15,-7.48 54.07,36.82 0,0 18.87,-42.44 21.92,-107.15 0,0 -35.14,43.2 -75.99,70.33z"/>
   <path class="fil2" d="M101.01 624c0,0 234.63,-26.45 374.85,-411.47 100.29,-12.96 190.72,-75.77 254.76,-161.82 0,0 -0.67,110.11 -205.96,186.16 0,0 -123,363.37 -423.65,387.13z"/>
  </g>
 </g>
</svg>
